<?xml version="1.0" encoding="UTF-8" standalone="no"?>
<svg
   xmlns:dc="http://purl.org/dc/elements/1.1/"
   xmlns:cc="http://creativecommons.org/ns#"
   xmlns:rdf="http://www.w3.org/1999/02/22-rdf-syntax-ns#"
   xmlns:svg="http://www.w3.org/2000/svg"
   xmlns="http://www.w3.org/2000/svg"
   id="svg22"
   version="1.1"
   height="34"
   width="35.5">
  <metadata
     id="metadata28">
    <rdf:RDF>
      <cc:Work
         rdf:about="">
        <dc:format>image/svg+xml</dc:format>
        <dc:type
           rdf:resource="http://purl.org/dc/dcmitype/StillImage" />
      </cc:Work>
    </rdf:RDF>
  </metadata>
  <defs
     id="defs26" />
  <g
     id="g5">
    <title
       id="title2">background</title>
    <rect
       x="-1"
       y="-1"
       width="37.5"
       height="36"
       id="canvas_background"
       fill="none" />
  </g>
  <g
     id="g20">
    <title
       id="title7">Layer 1</title>
    <rect
       id="rect3"
       width="263.5"
       fill="#389DDE"
       height="155.5"
       y="78.125"
       x="28.75" />
    <g
       id="logo-group"
       stroke="null">
      <path
         id="path6"
         fill="#F3F6FC"
         d="m33.377403003693,12.923602346372l-6.363,0l0,-7.016811620593c0,-0.155929147124 -0.063,-0.289582701802 -0.168,-0.400960664034l-1.596,-1.692945025921c0.273,-0.601440996051 0.063,-1.51474028635 -0.567,-2.160732467294c-0.735,-0.757370143175 -1.764,-0.891023697853 -2.31,-0.311858294249c-0.525,0.579165403605 -0.357,1.692945025921 0.378,2.450315169096c0.462,0.490063033819 1.05,0.735094550729 1.554,0.66826777339l1.596,1.692945025921l0,6.771780103683l-2.184,0l0,-2.673071093559c0,-0.155929147124 -0.063,-0.311858294249 -0.168,-0.400960664034l-1.596,-1.648393841028c0.273,-0.601440996051 0.063,-1.492464693904 -0.567,-2.160732467294c-0.735,-0.757370143175 -1.764,-0.891023697853 -2.31,-0.311858294249c-0.525,0.579165403605 -0.357,1.692945025921 0.378,2.450315169096c0.462,0.490063033819 1.071,0.735094550729 1.554,0.66826777339l1.596,1.648393841028l0,2.450315169096l-9.87,0l0,-2.405763984203l1.596,-1.648393841028c0.504,0.066826777339 1.092,-0.178204739571 1.554,-0.66826777339c0.735,-0.757370143175 0.903,-1.871149765491 0.378,-2.450315169096s-1.554,-0.467787441373 -2.31,0.311858294249c-0.63,0.645992180943 -0.84,1.537015878797 -0.567,2.160732467294l-1.596,1.648393841028c-0.105,0.111377962232 -0.168,0.267307109356 -0.168,0.400960664034l0,2.650795501113l-2.184,0l0,-6.771780103683l1.596,-1.692945025921c0.504,0.066826777339 1.092,-0.178204739571 1.554,-0.66826777339c0.735,-0.757370143175 0.903,-1.871149765491 0.378,-2.450315169096s-1.554,-0.467787441373 -2.31,0.311858294249c-0.63,0.645992180943 -0.84,1.537015878797 -0.567,2.160732467294l-1.596,1.692945025921c-0.105,0.111377962232 -0.168,0.267307109356 -0.168,0.400960664034l0,7.016811620593l-6.363,0c-0.798,0 -1.407,0.311858294249 -1.701,0.868748105407c-0.294,0.579165403605 -0.21,1.269708769441 0.189,2.004803320169l2.94,3.252236497164l0,12.474331769943c0,0.311858294249 0.252,0.579165403605 0.546,0.579165403605s0.546,-0.267307109356 0.546,-0.579165403605l26.649,0c0,0.311858294249 0.252,0.579165403605 0.546,0.579165403605s0.546,-0.267307109356 0.546,-0.579165403605l0,-12.474331769943l2.604,-3.163134127378l0.063,-0.089102369785c0.42,-0.735094550729 0.504,-1.425637916565 0.189,-2.004803320169c-0.294,-0.579165403605 -0.903,-0.891023697853 -1.701,-0.891023697853zm0.567,2.227559244633l-2.478,3.007204980254l-27.321,0l-2.709,-3.0294805727c-0.189,-0.311858294249 -0.252,-0.601440996051 -0.147,-0.757370143175c0.084,-0.178204739571 0.357,-0.289582701802 0.735,-0.289582701802l31.374,0c0.357,0 0.63,0.111377962232 0.735,0.289582701802c0.063,0.178204739571 0.021,0.467787441373 -0.189,0.779645735621z"
         stroke="null" />
      <path
         id="path8"
         fill="#F3F6FC"
         d="m-40.122596996307,41.480911862564c-1.89,0 -3.486,0.690543365836 -4.809,2.093905689955s-1.974,3.118582942486 -1.974,5.101110670209l0,11.961993143678c0,0.356409479141 0.105,0.645992180944 0.336,0.891023697853c0.21,0.267307109356 0.483,0.356409479141 0.84,0.356409479141c0.315,0 0.588,-0.111377962232 0.798,-0.356409479141c0.252,-0.222755924463 0.357,-0.512338626266 0.357,-0.891023697853l0,-6.504472994328c1.239,1.158330807209 2.751,1.75977180326 4.431,1.75977180326c1.89,0 3.486,-0.690543365836 4.809,-2.093905689955c1.323,-1.425637916565 2.016,-3.118582942486 2.016,-5.123386262655c0,-1.982527727723 -0.693,-3.69774834609 -2.016,-5.101110670209c-1.323,-1.381086731672 -2.898,-2.093905689955 -4.788,-2.093905689955zm3.129,10.558630819559c-0.861,0.913299290299 -1.911,1.381086731672 -3.129,1.381086731672s-2.268,-0.467787441373 -3.129,-1.381086731672c-0.882,-0.935574882746 -1.302,-2.049354505062 -1.302,-3.341338866949c0,-0.824196920514 0.189,-1.626118248582 0.588,-2.361212799311s0.924,-1.291984361887 1.617,-1.715220618367s1.428,-0.623716588497 2.226,-0.623716588497c1.218,0 2.268,0.467787441373 3.129,1.381086731672c0.882,0.935574882746 1.323,2.027078912616 1.323,3.319063274503s-0.441,2.405763984203 -1.323,3.341338866949zm15.792,-10.870489113808c-2.058,0 -3.801,0.779645735621 -5.271,2.316661614418c-1.449,1.537015878797 -2.163,3.385890051842 -2.163,5.568898111582l0,5.479795741796c0,0.356409479141 0.105,0.645992180943 0.336,0.891023697853c0.21,0.267307109356 0.483,0.356409479141 0.84,0.356409479141c0.315,0 0.588,-0.111377962232 0.798,-0.356409479141c0.252,-0.222755924463 0.357,-0.512338626266 0.357,-0.891023697853l0,-5.479795741796c0,-1.470189101458 0.483,-2.762173463345 1.47,-3.786850715876c1.008,-1.069228437424 2.205,-1.581567063689 3.591,-1.581567063689c0.315,0 0.588,-0.133653554678 0.84,-0.356409479141c0.21,-0.267307109356 0.336,-0.534614218712 0.336,-0.891023697853c0,-0.334133886695 -0.126,-0.645992180943 -0.336,-0.891023697853s-0.483,-0.378685071588 -0.798,-0.378685071588zm10.269,0.289582701802c-1.89,0 -3.486,0.735094550729 -4.809,2.138456874847s-1.974,3.096307350039 -1.974,5.101110670209s0.651,3.69774834609 1.974,5.101110670209s2.919,2.093905689955 4.809,2.093905689955c1.617,0 3.045,-0.512338626266 4.284,-1.603842656136c0.273,-0.200480332017 0.399,-0.490063033819 0.441,-0.824196920514c0.021,-0.356409479141 -0.042,-0.645992180943 -0.273,-0.935574882746c-0.189,-0.267307109356 -0.462,-0.42323625648 -0.777,-0.445511848927s-0.609,0.044551184893 -0.861,0.289582701802c-0.84,0.690543365836 -1.764,1.046952844977 -2.814,1.046952844977c-1.218,0 -2.268,-0.445511848927 -3.129,-1.381086731672c-0.882,-0.913299290299 -1.302,-2.027078912616 -1.302,-3.319063274503s0.42,-2.405763984203 1.302,-3.341338866949c0.861,-0.913299290299 1.911,-1.381086731672 3.129,-1.381086731672c1.008,0 1.911,0.334133886695 2.709,0.980126067638c0.777,0.645992180943 1.302,1.470189101458 1.575,2.494866353989l-4.284,0c-0.315,0 -0.609,0.133653554678 -0.84,0.356409479141c-0.21,0.222755924463 -0.336,0.534614218712 -0.336,0.891023697853c0,0.334133886695 0.126,0.645992180943 0.336,0.891023697853c0.21,0.222755924463 0.504,0.356409479141 0.84,0.356409479141l5.628,0c0.315,0 0.588,-0.133653554678 0.798,-0.356409479141c0.252,-0.222755924463 0.357,-0.534614218712 0.357,-0.891023697853c0,-2.004803320169 -0.693,-3.69774834609 -2.016,-5.101110670209c-1.302,-1.425637916565 -2.877,-2.160732467294 -4.767,-2.160732467294zm19.488,7.529150246859c-0.735,-0.66826777339 -2.016,-1.202881992102 -3.78,-1.581567063689c-0.882,-0.178204739571 -1.533,-0.356409479141 -1.974,-0.579165403605c-0.462,-0.200480332017 -0.777,-0.42323625648 -0.924,-0.645992180943c-0.168,-0.222755924463 -0.252,-0.512338626266 -0.252,-0.891023697853c0,-0.467787441373 0.21,-0.84647251296 0.714,-1.113779622316c0.483,-0.267307109356 1.092,-0.42323625648 1.869,-0.42323625648c0.63,0 1.197,0.111377962232 1.659,0.267307109356c0.441,0.155929147124 0.882,0.445511848927 1.302,0.824196920514c0.336,0.334133886695 0.714,0.490063033819 1.155,0.490063033819c0.273,0 0.483,-0.044551184893 0.693,-0.200480332017c0.273,-0.222755924463 0.42,-0.490063033819 0.42,-0.801921328068c0,-0.267307109356 -0.126,-0.534614218712 -0.315,-0.824196920514c-0.483,-0.623716588497 -1.176,-1.136055214763 -2.016,-1.51474028635c-0.84,-0.356409479141 -1.785,-0.534614218712 -2.835,-0.534614218712c-0.882,0 -1.68,0.155929147124 -2.457,0.445511848927c-0.777,0.311858294249 -1.386,0.757370143175 -1.869,1.314259954333c-0.483,0.601440996051 -0.714,1.314259954333 -0.714,2.160732467294c0,2.093905689955 1.575,3.474992421627 4.704,4.098709010124c1.197,0.267307109356 2.058,0.534614218712 2.562,0.913299290299c0.483,0.356409479141 0.756,0.801921328068 0.756,1.314259954333c0,0.579165403604 -0.273,1.002401660085 -0.777,1.314259954333c-0.504,0.334133886695 -1.218,0.490063033819 -2.163,0.490063033819c-0.714,0 -1.365,-0.133653554678 -1.974,-0.378685071588c-0.63,-0.267307109356 -1.092,-0.601440996051 -1.386,-0.957850475192c-0.294,-0.311858294249 -0.609,-0.467787441373 -0.924,-0.467787441373c-0.273,0 -0.567,0.133653554678 -0.861,0.356409479141c-0.336,0.267307109356 -0.483,0.601440996051 -0.483,1.002401660085c0,0.311858294249 0.105,0.601440996051 0.315,0.801921328068c0.546,0.601440996051 1.323,1.069228437424 2.31,1.425637916565s2.016,0.534614218712 3.129,0.534614218712c1.092,0 2.058,-0.178204739571 2.835,-0.534614218712s1.386,-0.891023697853 1.806,-1.537015878797c0.399,-0.645992180943 0.609,-1.381086731672 0.609,-2.18300805974c0,-1.024677252531 -0.399,-1.893425357938 -1.134,-2.583968723774zm14.322,0c-0.735,-0.66826777339 -2.016,-1.202881992102 -3.78,-1.581567063689c-0.882,-0.178204739571 -1.533,-0.356409479141 -1.974,-0.579165403605c-0.462,-0.200480332017 -0.777,-0.42323625648 -0.924,-0.645992180943c-0.168,-0.222755924463 -0.252,-0.512338626266 -0.252,-0.891023697853c0,-0.467787441373 0.21,-0.84647251296 0.714,-1.113779622316c0.483,-0.267307109356 1.092,-0.42323625648 1.869,-0.42323625648c0.63,0 1.197,0.111377962232 1.659,0.267307109356c0.441,0.155929147124 0.882,0.445511848927 1.302,0.824196920514c0.336,0.334133886695 0.714,0.490063033819 1.155,0.490063033819c0.273,0 0.483,-0.044551184893 0.693,-0.200480332017c0.273,-0.222755924463 0.42,-0.490063033819 0.42,-0.801921328068c0,-0.267307109356 -0.126,-0.534614218712 -0.315,-0.824196920514c-0.483,-0.623716588497 -1.176,-1.136055214763 -2.016,-1.51474028635c-0.84,-0.356409479141 -1.785,-0.534614218712 -2.835,-0.534614218712c-0.882,0 -1.68,0.155929147124 -2.457,0.445511848927c-0.777,0.311858294249 -1.386,0.757370143175 -1.869,1.314259954333c-0.483,0.601440996051 -0.714,1.314259954333 -0.714,2.160732467294c0,2.093905689955 1.575,3.474992421627 4.704,4.098709010124c1.197,0.267307109356 2.058,0.534614218712 2.562,0.913299290299c0.483,0.356409479141 0.756,0.801921328068 0.756,1.314259954333c0,0.579165403604 -0.273,1.002401660085 -0.777,1.314259954333c-0.504,0.334133886695 -1.218,0.490063033819 -2.163,0.490063033819c-0.714,0 -1.365,-0.133653554678 -1.974,-0.378685071588c-0.63,-0.267307109356 -1.092,-0.601440996051 -1.386,-0.957850475192c-0.294,-0.311858294249 -0.609,-0.467787441373 -0.924,-0.467787441373c-0.273,0 -0.567,0.133653554678 -0.861,0.356409479141c-0.336,0.267307109356 -0.483,0.601440996051 -0.483,1.002401660085c0,0.311858294249 0.105,0.601440996051 0.315,0.801921328068c0.546,0.601440996051 1.323,1.069228437424 2.31,1.425637916565s2.016,0.534614218712 3.129,0.534614218712c1.092,0 2.058,-0.178204739571 2.835,-0.534614218712s1.386,-0.891023697853 1.806,-1.537015878797c0.399,-0.645992180943 0.609,-1.381086731672 0.609,-2.18300805974c-0.021,-1.024677252531 -0.399,-1.893425357938 -1.134,-2.583968723774zm11.067,-7.529150246859c-1.89,0 -3.486,0.735094550729 -4.809,2.138456874847s-1.974,3.096307350039 -1.974,5.101110670209s0.651,3.69774834609 1.974,5.101110670209s2.919,2.093905689955 4.809,2.093905689955c1.617,0 3.045,-0.512338626266 4.284,-1.603842656136c0.273,-0.200480332017 0.399,-0.490063033819 0.441,-0.824196920514c0.021,-0.356409479141 -0.042,-0.645992180943 -0.273,-0.935574882746c-0.189,-0.267307109356 -0.462,-0.42323625648 -0.777,-0.445511848927s-0.609,0.044551184893 -0.861,0.289582701802c-0.84,0.690543365836 -1.764,1.046952844977 -2.814,1.046952844977c-1.218,0 -2.268,-0.445511848927 -3.129,-1.381086731672c-0.882,-0.913299290299 -1.302,-2.027078912616 -1.302,-3.319063274503s0.42,-2.405763984203 1.302,-3.341338866949c0.861,-0.913299290299 1.911,-1.381086731672 3.129,-1.381086731672c1.008,0 1.911,0.334133886695 2.709,0.980126067638c0.777,0.645992180943 1.302,1.470189101458 1.575,2.494866353989l-4.284,0c-0.315,0 -0.609,0.133653554678 -0.84,0.356409479141c-0.21,0.222755924463 -0.336,0.534614218712 -0.336,0.891023697853c0,0.334133886695 0.126,0.645992180943 0.336,0.891023697853c0.21,0.222755924463 0.504,0.356409479141 0.84,0.356409479141l5.628,0c0.315,0 0.588,-0.133653554678 0.798,-0.356409479141c0.252,-0.222755924463 0.357,-0.534614218712 0.357,-0.891023697853c0,-2.004803320169 -0.693,-3.69774834609 -2.016,-5.101110670209c-1.302,-1.425637916565 -2.898,-2.160732467294 -4.767,-2.160732467294zm17.934,-0.289582701802c-2.058,0 -3.801,0.779645735621 -5.271,2.316661614418c-1.449,1.537015878797 -2.163,3.385890051842 -2.163,5.568898111582l0,5.479795741796c0,0.356409479141 0.105,0.645992180943 0.336,0.891023697853c0.21,0.267307109356 0.483,0.356409479141 0.84,0.356409479141c0.315,0 0.588,-0.111377962232 0.798,-0.356409479141c0.252,-0.222755924463 0.357,-0.512338626266 0.357,-0.891023697853l0,-5.479795741796c0,-1.470189101458 0.483,-2.762173463345 1.47,-3.786850715876c1.008,-1.069228437424 2.205,-1.581567063689 3.591,-1.581567063689c0.315,0 0.588,-0.133653554678 0.84,-0.356409479141c0.21,-0.267307109356 0.336,-0.534614218712 0.336,-0.891023697853c0,-0.334133886695 -0.126,-0.645992180943 -0.336,-0.891023697853s-0.483,-0.378685071588 -0.798,-0.378685071588zm2.982,11.40510333252c-0.462,0 -0.861,0.178204739571 -1.197,0.534614218712s-0.483,0.779645735621 -0.483,1.269708769441c0,0.490063033819 0.147,0.913299290299 0.483,1.269708769441s0.735,0.512338626266 1.197,0.512338626266s0.861,-0.155929147124 1.197,-0.512338626266c0.315,-0.356409479141 0.483,-0.779645735621 0.483,-1.269708769441s-0.168,-0.913299290299 -0.504,-1.269708769441c-0.357,-0.334133886695 -0.735,-0.534614218712 -1.176,-0.534614218712zm7.623,-16.751245519638c-0.441,0 -0.84,0.178204739571 -1.155,0.512338626266s-0.462,0.735094550729 -0.462,1.202881992102s0.147,0.891023697853 0.462,1.225157584548s0.714,0.490063033819 1.155,0.490063033819s0.798,-0.155929147124 1.134,-0.490063033819c0.315,-0.334133886695 0.483,-0.757370143175 0.483,-1.225157584548s-0.168,-0.84647251296 -0.483,-1.202881992102c-0.315,-0.334133886695 -0.693,-0.512338626266 -1.134,-0.512338626266zm0,5.747102851152c-0.357,0 -0.651,0.133653554678 -0.903,0.356409479141c-0.252,0.267307109356 -0.336,0.579165403605 -0.336,0.957850475192l0,11.561032479644c0,0.378685071588 0.105,0.690543365836 0.336,0.957850475192c0.252,0.267307109356 0.546,0.356409479141 0.903,0.356409479141s0.651,-0.111377962232 0.903,-0.356409479141c0.21,-0.267307109356 0.336,-0.579165403605 0.336,-0.957850475192l0,-11.561032479644c0,-0.378685071588 -0.126,-0.690543365836 -0.336,-0.957850475192c-0.231,-0.222755924463 -0.525,-0.356409479141 -0.903,-0.356409479141zm17.808,2.027078912616c-1.323,-1.403362324119 -2.919,-2.138456874847 -4.809,-2.138456874847s-3.486,0.735094550729 -4.809,2.138456874847c-1.323,1.403362324119 -1.974,3.096307350039 -1.974,5.101110670209s0.651,3.69774834609 1.974,5.101110670209s2.919,2.093905689955 4.809,2.093905689955s3.486,-0.690543365836 4.809,-2.093905689955c1.323,-1.403362324119 2.016,-3.096307350039 2.016,-5.101110670209c-0.021,-2.004803320169 -0.693,-3.69774834609 -2.016,-5.101110670209zm-1.638,8.420173944712c-0.882,0.935574882746 -1.932,1.381086731672 -3.15,1.381086731672s-2.268,-0.445511848927 -3.129,-1.381086731672c-0.882,-0.913299290299 -1.302,-2.027078912616 -1.302,-3.319063274503s0.42,-2.405763984203 1.302,-3.341338866949c0.861,-0.913299290299 1.911,-1.381086731672 3.129,-1.381086731672s2.268,0.467787441373 3.15,1.381086731672c0.861,0.935574882746 1.302,2.049354505062 1.302,3.341338866949c-0.021,1.291984361887 -0.462,2.405763984203 -1.302,3.319063274503z"
         stroke="null" />
      <path
         id="path10"
         fill="#F3F6FC"
         d="m-27.795596996307,71.530686072659l0.903,0l0,-2.962653795362l3.045,0l0,-0.868748105407l-3.045,0l0,-2.294386021972l3.381,0l0,-0.868748105407l-4.284,0l0,6.994536028147zm6.132,-4.143260195017l0,-1.136055214763l-0.882,0l0,5.27931540978l0.882,0l0,-2.784449055791c0.042,-0.512338626266 0.231,-0.913299290299 0.546,-1.202881992102s0.714,-0.445511848927 1.239,-0.42323625648l0,-0.891023697853c-0.42,0 -0.777,0.111377962232 -1.071,0.311858294249c-0.315,0.178204739571 -0.546,0.467787441373 -0.714,0.84647251296zm4.725,-1.158330807209c-0.483,0 -0.903,0.111377962232 -1.281,0.356409479141c-0.378,0.222755924463 -0.672,0.534614218712 -0.882,0.957850475192c-0.21,0.400960664034 -0.315,0.868748105407 -0.315,1.381086731672s0.105,0.980126067638 0.315,1.381086731672s0.504,0.712818958282 0.882,0.957850475192c0.378,0.222755924463 0.819,0.334133886695 1.302,0.334133886695c0.42,0 0.798,-0.066826777339 1.155,-0.222755924463c0.336,-0.155929147124 0.63,-0.378685071588 0.882,-0.645992180943l-0.483,-0.534614218712c-0.189,0.200480332017 -0.42,0.356409479141 -0.672,0.490063033819c-0.252,0.111377962232 -0.525,0.178204739571 -0.819,0.178204739571c-0.441,0 -0.819,-0.133653554678 -1.134,-0.42323625648c-0.294,-0.289582701802 -0.483,-0.645992180943 -0.546,-1.136055214763l3.927,0l0,-0.289582701802c0,-0.868748105407 -0.189,-1.537015878797 -0.588,-2.004803320169c-0.399,-0.534614218712 -0.987,-0.779645735621 -1.743,-0.779645735621zm-1.617,2.316661614418c0.063,-0.467787441373 0.231,-0.84647251296 0.525,-1.136055214763s0.672,-0.42323625648 1.092,-0.42323625648c0.462,0 0.819,0.133653554678 1.092,0.42323625648c0.273,0.267307109356 0.42,0.645992180943 0.462,1.136055214763l-3.171,0zm7.14,-2.316661614418c-0.483,0 -0.903,0.111377962232 -1.281,0.356409479141c-0.378,0.222755924463 -0.672,0.534614218712 -0.882,0.957850475192c-0.21,0.400960664034 -0.315,0.868748105407 -0.315,1.381086731672s0.105,0.980126067638 0.315,1.381086731672s0.504,0.712818958282 0.882,0.957850475192c0.378,0.222755924463 0.819,0.334133886695 1.302,0.334133886695c0.42,0 0.798,-0.066826777339 1.155,-0.222755924463c0.336,-0.155929147124 0.63,-0.378685071588 0.882,-0.645992180943l-0.483,-0.534614218712c-0.189,0.200480332017 -0.42,0.356409479141 -0.672,0.490063033819c-0.252,0.111377962232 -0.525,0.178204739571 -0.819,0.178204739571c-0.441,0 -0.819,-0.133653554678 -1.134,-0.42323625648c-0.294,-0.289582701802 -0.483,-0.645992180943 -0.546,-1.136055214763l3.927,0l0,-0.289582701802c0,-0.868748105407 -0.189,-1.537015878797 -0.588,-2.004803320169c-0.378,-0.534614218712 -0.966,-0.779645735621 -1.743,-0.779645735621zm-1.617,2.316661614418c0.063,-0.467787441373 0.231,-0.84647251296 0.525,-1.136055214763s0.672,-0.42323625648 1.092,-0.42323625648c0.462,0 0.819,0.133653554678 1.092,0.42323625648c0.273,0.267307109356 0.42,0.645992180943 0.462,1.136055214763l-3.171,0zm8.925,-1.247433176994c-0.189,-0.356409479141 -0.441,-0.623716588497 -0.756,-0.801921328068s-0.693,-0.289582701802 -1.113,-0.289582701802c-0.462,0 -0.882,0.111377962232 -1.239,0.334133886695s-0.63,0.534614218712 -0.84,0.957850475192c-0.21,0.400960664034 -0.294,0.868748105407 -0.294,1.381086731672c0,0.534614218712 0.105,1.002401660085 0.294,1.403362324119c0.21,0.400960664034 0.483,0.735094550729 0.84,0.957850475192s0.777,0.334133886695 1.26,0.334133886695c0.42,0 0.777,-0.089102369785 1.092,-0.289582701802s0.567,-0.467787441373 0.756,-0.824196920514l0,1.046952844977l0.882,0l0,-7.395496692181l-0.882,0l0,3.185409719825zm-0.231,2.583968723774c-0.147,0.289582701802 -0.336,0.512338626266 -0.609,0.66826777339c-0.252,0.155929147124 -0.546,0.24503151691 -0.861,0.24503151691c-0.336,0 -0.609,-0.089102369785 -0.882,-0.24503151691c-0.252,-0.155929147124 -0.441,-0.378685071588 -0.588,-0.66826777339s-0.21,-0.601440996051 -0.21,-0.957850475192s0.063,-0.690543365836 0.21,-0.957850475192c0.147,-0.289582701802 0.336,-0.512338626266 0.588,-0.66826777339s0.546,-0.24503151691 0.882,-0.24503151691s0.609,0.089102369785 0.861,0.24503151691s0.462,0.378685071588 0.609,0.66826777339s0.21,0.601440996051 0.21,0.980126067638c0.021,0.311858294249 -0.063,0.645992180944 -0.21,0.935574882746zm6.237,-3.319063274503c-0.378,-0.222755924463 -0.819,-0.334133886695 -1.323,-0.334133886695s-0.945,0.111377962232 -1.344,0.334133886695c-0.378,0.222755924463 -0.693,0.534614218712 -0.903,0.957850475192c-0.21,0.400960664034 -0.315,0.868748105407 -0.315,1.381086731672c0,0.534614218712 0.105,1.002401660085 0.315,1.403362324119s0.525,0.712818958282 0.903,0.935574882746c0.399,0.222755924463 0.84,0.334133886695 1.344,0.334133886695s0.945,-0.111377962232 1.323,-0.334133886695c0.399,-0.222755924463 0.693,-0.534614218712 0.903,-0.957850475192c0.21,-0.400960664034 0.336,-0.868748105407 0.336,-1.381086731672s-0.105,-0.980126067638 -0.336,-1.381086731672c-0.21,-0.42323625648 -0.504,-0.735094550729 -0.903,-0.957850475192zm0.126,3.319063274503c-0.147,0.289582701802 -0.336,0.512338626266 -0.588,0.66826777339s-0.546,0.222755924463 -0.861,0.222755924463c-0.336,0 -0.609,-0.066826777339 -0.882,-0.222755924463c-0.252,-0.155929147124 -0.441,-0.378685071588 -0.588,-0.66826777339s-0.21,-0.601440996051 -0.21,-0.980126067638c0,-0.356409479141 0.063,-0.66826777339 0.21,-0.957850475192s0.336,-0.512338626266 0.588,-0.66826777339s0.546,-0.24503151691 0.882,-0.24503151691c0.315,0 0.609,0.089102369785 0.861,0.24503151691s0.462,0.378685071588 0.588,0.66826777339c0.147,0.289582701802 0.21,0.601440996051 0.21,0.957850475192c0.021,0.356409479141 -0.063,0.690543365836 -0.21,0.980126067638zm8.757,-3.653197161198c-0.987,0.022275592446 -1.638,0.445511848927 -1.932,1.33653554678c-0.105,-0.42323625648 -0.315,-0.735094550729 -0.63,-0.980126067638c-0.294,-0.222755924463 -0.672,-0.356409479141 -1.134,-0.356409479141c-0.903,0.022275592446 -1.533,0.400960664034 -1.848,1.136055214763l0,-1.113779622316l-0.882,0l0,5.27931540978l0.882,0l0,-2.60624431622c0,-0.534614218712 0.126,-0.957850475192 0.399,-1.314259954333c0.273,-0.334133886695 0.651,-0.512338626266 1.113,-0.534614218712c0.399,0 0.714,0.133653554678 0.945,0.378685071588s0.336,0.601440996051 0.336,1.046952844977l0,3.007204980254l0.882,0l0,-2.583968723774c0,-0.534614218712 0.126,-0.957850475192 0.399,-1.314259954333c0.273,-0.334133886695 0.63,-0.512338626266 1.113,-0.534614218712c0.399,0 0.714,0.133653554678 0.945,0.378685071588s0.357,0.601440996051 0.357,1.046952844977l0,3.007204980254l0.882,0l0,-3.252236497164c0,-0.623716588497 -0.168,-1.136055214763 -0.483,-1.492464693904s-0.777,-0.534614218712 -1.344,-0.534614218712zm10.584,-1.269708769441c-0.525,-0.311858294249 -1.113,-0.467787441373 -1.743,-0.467787441373s-1.218,0.155929147124 -1.743,0.467787441373s-0.945,0.735094550729 -1.26,1.291984361887c-0.315,0.534614218712 -0.462,1.136055214763 -0.462,1.782047395706s0.147,1.247433176994 0.462,1.804322988153c0.315,0.534614218712 0.714,0.980126067638 1.26,1.291984361887c0.525,0.311858294249 1.113,0.467787441373 1.743,0.467787441373s1.218,-0.155929147124 1.743,-0.467787441373s0.945,-0.757370143175 1.26,-1.291984361887c0.315,-0.556889811158 0.462,-1.158330807209 0.462,-1.804322988153s-0.147,-1.247433176994 -0.462,-1.782047395706c-0.315,-0.556889811158 -0.735,-0.980126067638 -1.26,-1.291984361887zm0.441,4.432842896819c-0.231,0.42323625648 -0.525,0.735094550729 -0.924,0.980126067638c-0.378,0.24503151691 -0.798,0.356409479141 -1.26,0.356409479141s-0.882,-0.111377962232 -1.281,-0.356409479141s-0.693,-0.579165403605 -0.924,-0.980126067638s-0.357,-0.868748105407 -0.357,-1.358811139226c0,-0.490063033819 0.126,-0.935574882746 0.357,-1.33653554678c0.231,-0.42323625648 0.546,-0.735094550729 0.924,-0.980126067638c0.399,-0.24503151691 0.819,-0.356409479141 1.281,-0.356409479141s0.882,0.111377962232 1.26,0.356409479141c0.399,0.24503151691 0.693,0.556889811158 0.924,0.980126067638c0.231,0.400960664034 0.357,0.84647251296 0.357,1.33653554678s-0.126,0.935574882746 -0.357,1.358811139226zm3.486,-5.123386262655c-0.252,0.133653554678 -0.462,0.334133886695 -0.609,0.601440996051s-0.231,0.601440996051 -0.231,0.980126067638l0,0.579165403605l-0.651,0l0,0.712818958282l0.651,0l0,4.388291711926l0.882,0l0,-4.388291711926l1.365,0l0,-0.712818958282l-1.365,0l0,-0.690543365836c0,-0.267307109356 0.084,-0.490063033819 0.231,-0.623716588497c0.147,-0.155929147124 0.336,-0.222755924463 0.567,-0.222755924463c0.21,0 0.42,0.066826777339 0.63,0.178204739571l0.21,-0.757370143175c-0.294,-0.155929147124 -0.588,-0.24503151691 -0.861,-0.24503151691c-0.294,0 -0.567,0.066826777339 -0.819,0.200480332017zm8.127,3.69774834609c-0.273,-0.133653554678 -0.63,-0.267307109356 -1.092,-0.42323625648c-0.357,-0.111377962232 -0.63,-0.222755924463 -0.84,-0.311858294249s-0.378,-0.222755924463 -0.504,-0.378685071588c-0.147,-0.155929147124 -0.21,-0.356409479141 -0.21,-0.601440996051c0,-0.267307109356 0.105,-0.490063033819 0.336,-0.645992180944s0.546,-0.24503151691 0.924,-0.24503151691c0.273,0 0.567,0.044551184893 0.903,0.155929147124c0.336,0.089102369785 0.651,0.24503151691 0.966,0.467787441373l0.378,-0.868748105407c-0.294,-0.200480332017 -0.63,-0.378685071588 -1.008,-0.490063033819c-0.378,-0.133653554678 -0.756,-0.200480332017 -1.155,-0.200480332017c-0.462,0 -0.882,0.066826777339 -1.218,0.222755924463s-0.63,0.378685071588 -0.819,0.66826777339s-0.294,0.623716588497 -0.294,0.980126067638c0,0.42323625648 0.084,0.757370143175 0.273,1.024677252531s0.42,0.445511848927 0.714,0.579165403605c0.273,0.133653554678 0.63,0.267307109356 1.071,0.400960664034c0.357,0.111377962232 0.63,0.222755924463 0.84,0.311858294249s0.399,0.222755924463 0.525,0.378685071588c0.147,0.155929147124 0.21,0.356409479141 0.21,0.601440996051c0,0.311858294249 -0.126,0.556889811158 -0.378,0.757370143175c-0.252,0.178204739571 -0.588,0.267307109356 -1.029,0.267307109356c-0.378,0 -0.756,-0.089102369785 -1.155,-0.267307109356s-0.735,-0.42323625648 -1.05,-0.757370143175l-0.399,0.824196920514c0.336,0.334133886695 0.735,0.601440996051 1.176,0.801921328068s0.924,0.289582701802 1.407,0.289582701802c0.483,0 0.903,-0.089102369785 1.26,-0.24503151691c0.378,-0.155929147124 0.651,-0.400960664034 0.861,-0.690543365836s0.315,-0.645992180943 0.315,-1.046952844977c0,-0.42323625648 -0.105,-0.779645735621 -0.294,-1.046952844977c-0.21,-0.178204739571 -0.441,-0.378685071588 -0.714,-0.512338626266zm6.342,-1.403362324119c-0.357,-0.222755924463 -0.777,-0.334133886695 -1.239,-0.334133886695c-0.42,0 -0.777,0.089102369785 -1.092,0.289582701802c-0.315,0.178204739571 -0.567,0.445511848927 -0.735,0.801921328068l0,-1.069228437424l-0.882,0l0,7.21729195261l0.882,0l0,-2.984929387808c0.189,0.356409479141 0.441,0.601440996051 0.756,0.801921328068c0.315,0.178204739571 0.693,0.289582701802 1.113,0.289582701802c0.462,0 0.882,-0.111377962232 1.239,-0.334133886695s0.651,-0.534614218712 0.84,-0.935574882746c0.21,-0.400960664034 0.294,-0.868748105407 0.294,-1.381086731672c0,-0.534614218712 -0.105,-1.002401660085 -0.294,-1.403362324119c-0.231,-0.42323625648 -0.504,-0.735094550729 -0.882,-0.957850475192zm0.042,3.27451208961c-0.147,0.289582701802 -0.336,0.512338626266 -0.588,0.66826777339s-0.546,0.24503151691 -0.861,0.24503151691s-0.609,-0.089102369785 -0.861,-0.24503151691s-0.441,-0.378685071588 -0.588,-0.66826777339s-0.21,-0.601440996051 -0.21,-0.980126067638c0,-0.356409479141 0.063,-0.66826777339 0.21,-0.957850475192s0.336,-0.512338626266 0.588,-0.66826777339s0.546,-0.24503151691 0.861,-0.24503151691s0.609,0.089102369785 0.861,0.24503151691s0.441,0.378685071588 0.588,0.66826777339s0.21,0.601440996051 0.21,0.957850475192c0,0.378685071588 -0.063,0.690543365836 -0.21,0.980126067638zm4.326,-3.608645976305c-0.483,0 -0.903,0.111377962232 -1.281,0.356409479141c-0.378,0.222755924463 -0.672,0.534614218712 -0.882,0.957850475192c-0.21,0.400960664034 -0.315,0.868748105407 -0.315,1.381086731672s0.105,0.980126067638 0.315,1.381086731672c0.21,0.400960664034 0.504,0.712818958282 0.882,0.957850475192c0.378,0.222755924463 0.819,0.334133886695 1.302,0.334133886695c0.42,0 0.798,-0.066826777339 1.155,-0.222755924463c0.336,-0.155929147124 0.63,-0.378685071588 0.882,-0.645992180943l-0.483,-0.534614218712c-0.189,0.200480332017 -0.42,0.356409479141 -0.672,0.490063033819c-0.252,0.111377962232 -0.525,0.178204739571 -0.819,0.178204739571c-0.441,0 -0.819,-0.133653554678 -1.134,-0.42323625648c-0.294,-0.289582701802 -0.483,-0.645992180943 -0.546,-1.136055214763l3.927,0l0,-0.289582701802c0,-0.868748105407 -0.189,-1.537015878797 -0.588,-2.004803320169c-0.378,-0.534614218712 -0.966,-0.779645735621 -1.743,-0.779645735621zm-1.596,2.316661614418c0.063,-0.467787441373 0.231,-0.84647251296 0.525,-1.136055214763s0.672,-0.42323625648 1.092,-0.42323625648c0.462,0 0.819,0.133653554678 1.092,0.42323625648c0.273,0.267307109356 0.42,0.645992180943 0.462,1.136055214763l-3.171,0zm7.119,-2.316661614418c-0.483,0 -0.903,0.111377962232 -1.281,0.356409479141c-0.378,0.222755924463 -0.672,0.534614218712 -0.882,0.957850475192c-0.21,0.400960664034 -0.315,0.868748105407 -0.315,1.381086731672s0.105,0.980126067638 0.315,1.381086731672c0.21,0.400960664034 0.504,0.712818958282 0.882,0.957850475192c0.378,0.222755924463 0.819,0.334133886695 1.302,0.334133886695c0.42,0 0.798,-0.066826777339 1.155,-0.222755924463c0.336,-0.155929147124 0.63,-0.378685071588 0.882,-0.645992180943l-0.483,-0.534614218712c-0.189,0.200480332017 -0.42,0.356409479141 -0.672,0.490063033819c-0.252,0.111377962232 -0.525,0.178204739571 -0.819,0.178204739571c-0.441,0 -0.819,-0.133653554678 -1.134,-0.42323625648c-0.294,-0.289582701802 -0.483,-0.645992180943 -0.546,-1.136055214763l3.927,0l0,-0.289582701802c0,-0.868748105407 -0.189,-1.537015878797 -0.588,-2.004803320169c-0.378,-0.534614218712 -0.966,-0.779645735621 -1.743,-0.779645735621zm-1.596,2.316661614418c0.063,-0.467787441373 0.231,-0.84647251296 0.525,-1.136055214763s0.672,-0.42323625648 1.092,-0.42323625648c0.462,0 0.819,0.133653554678 1.092,0.42323625648c0.273,0.267307109356 0.42,0.645992180943 0.462,1.136055214763l-3.171,0zm8.043,2.027078912616c-0.252,0.111377962232 -0.546,0.178204739571 -0.861,0.178204739571s-0.609,-0.066826777339 -0.861,-0.222755924463s-0.441,-0.378685071588 -0.588,-0.66826777339s-0.21,-0.601440996051 -0.21,-0.957850475192s0.063,-0.690543365836 0.21,-0.957850475192c0.147,-0.289582701802 0.336,-0.490063033819 0.588,-0.645992180943s0.546,-0.222755924463 0.882,-0.222755924463c0.546,0 1.029,0.200480332017 1.428,0.601440996051l0.483,-0.645992180943c-0.231,-0.267307109356 -0.504,-0.445511848927 -0.84,-0.579165403604s-0.714,-0.200480332017 -1.134,-0.200480332017c-0.483,0 -0.903,0.111377962232 -1.281,0.334133886695s-0.672,0.534614218712 -0.882,0.957850475192c-0.21,0.400960664034 -0.315,0.868748105407 -0.315,1.381086731672s0.105,0.980126067638 0.315,1.381086731672c0.21,0.400960664034 0.504,0.712818958282 0.882,0.935574882746s0.798,0.334133886695 1.281,0.334133886695c0.441,0 0.84,-0.089102369785 1.176,-0.24503151691c0.357,-0.155929147124 0.63,-0.378685071588 0.861,-0.690543365836l-0.504,-0.534614218712c-0.168,0.200480332017 -0.378,0.356409479141 -0.63,0.467787441373zm6.594,-3.809126308322c-0.336,-0.356409479141 -0.798,-0.556889811158 -1.365,-0.556889811158c-0.945,0.022275592446 -1.575,0.400960664034 -1.89,1.158330807209l0,-3.252236497164l-0.882,0l0,7.395496692181l0.882,0l0,-2.583968723774c0,-0.534614218712 0.147,-0.980126067638 0.42,-1.314259954333s0.672,-0.512338626266 1.155,-0.512338626266c0.42,0 0.735,0.133653554678 0.966,0.378685071588s0.357,0.601440996051 0.357,1.046952844977l0,3.007204980254l0.882,0l0,-3.27451208961c-0.042,-0.623716588497 -0.189,-1.136055214763 -0.525,-1.492464693904z"
         stroke="null" />
      <desc
         id="desc13"
         transform="translate(0,-2.8301846981048584) translate(0,-10.943380355834961) translate(0.5660369396209717,11.320738792419434) translate(-45.47163391113281,-10.566022872924805) translate(0,3) translate(0,3.000000476837158) translate(0,3) translate(0,3.000000238418579) translate(0,3) translate(0,6) translate(0,3) translate(0,3) translate(0,3) translate(0,6) translate(0,-3) translate(0,-3) translate(0,-6) translate(0,-3) translate(0,-6) translate(0,-6.000000476837158) translate(0,-2.999999523162842) translate(0,-3) translate(0,-3) translate(0,-3) translate(0,-3) translate(0,-3) translate(0,-3) translate(0,-2.999998092651367) translate(0,-3.0000038146972656) translate(0,-6) translate(0,0.3235130310058594) translate(-2.384185791015625e-7,0) translate(3,0) translate(3,0) translate(6,0) translate(3,0) translate(3,0) translate(6,0) translate(3,0) translate(3,0) translate(-3,0) translate(-6,0) translate(-3,0) translate(-3,0) translate(-3,0) translate(-6,0) translate(-3,0) translate(-9,0) translate(-9,0) translate(-20,0) translate(-9,0) translate(-10.999996185302734,0) translate(-20,0) translate(-9,0) translate(-9,0) translate(-6,0) translate(-3,0) translate(-3,0) translate(0.07599639892578125,0) matrix(0.02623725107767516,0,0,0.02783096723420244,0,-6.69163657741592) "
         stroke="null">Created with Fabric.js 5.3.0</desc>
      <g
         transform="matrix(0.02623725107767516,0,0,0.02783096723420244,13.44659117730852,4.00937032413492) "
         id="svg_6"
         stroke="null" />
      <g
         transform="matrix(0.0579553077408775,0,0,0.06671848435641721,50.82503002348241,21.492531510351867) "
         id="svg_5"
         fill="#389DDE"
         stroke-linecap="round">
        <path
           d="m-628.886114743873,49.371379508973l33.912,0l0,81.647999999999l34.128,0l0,-51.192l33.264,0c31.104,0 48.384,-21.384 48.384,-46.44c0,-25.272 -17.063999999999,-46.439999999999 -48.168,-46.439999999999l-67.608,0l0,30.455999999999l-33.912,0l0,31.968000000001zm34.128,-31.968000000001l63.072,0c10.8,0 17.712,6.264 17.712,15.984c0,9.504 -6.912,15.984000000001 -17.712,15.984000000001l-63.072,0l0,-31.968000000001z"
           stroke-linecap="round"
           id="svg_15"
           fill="#389dde"
           stroke=" none" />
      </g>
    </g>
    <path
       id="path18"
       fill="#8AC0DD"
       d="m101.579261207581,216.431988525391c-4.7,-9.4 -11.2,-18.2 -19.6,-26.4c-8.9,-8.6 -19.7,-16.4 -30.3,-24.3c3.3,7.4 5.8,15.1 7.3,23.1c1.6,9 1.1,18.6 -1.4,27.6l44,0zm-97.8,-155.3c1.8,8.6 5.2,18.2 5.9,21c2.2,-7 5.5,-14.1 9.5,-21l-15.4,0zm5.9,21c-5,15.5 -5.6,34.2 1.7,48c7.9,14.9 24.2,23.7 40.4,35.7c-5.2,-12 -12.2,-23.3 -19.1,-34.5c-9.4,-15.6 -18.9,-31.7 -23,-49.2z" />
  </g>
</svg>
