<svg width="309" height="59" viewBox="0 0 309 59" fill="none" xmlns="http://www.w3.org/2000/svg">
    <g clip-path="url(#zbq7ag2asa)">
        <path d="M309 0H0v59h309V0z" fill="#212529"/>
        <path fill-rule="evenodd" clip-rule="evenodd" d="M66.752 7.314h21.847c1.525 0 2.734 1.876 2.734 4.185V37.89c0 2.309-1.225 4.184-2.734 4.184H66.752c-1.524 0-2.734-1.875-2.734-4.184V11.5c0-2.31 1.225-4.185 2.734-4.185z" fill="#497DBE"/>
        <path d="M88.366 22.777c0 5.704-3.43 9.294-8.82 9.294H76.75v6.053h-6.529v-24.64h9.349c5.365 0 8.795 3.59 8.795 9.293zm-6.58 0c0-1.797-.859-2.89-2.657-2.89H76.75v5.781h2.378c1.798 0 2.657-1.1 2.657-2.89zM103.217 31.928h-1.768v6.196h-6.53v-24.64h9.319c5.396 0 8.825 3.59 8.825 9.293.051 1.606-.267 3.196-.916 4.575-.649 1.378-1.6 2.486-2.737 3.186l4.065 7.605h-6.976l-3.282-6.215zm.609-12.041h-2.377v5.781h2.377c1.799 0 2.653-1.093 2.653-2.884 0-1.792-.854-2.897-2.653-2.897zM131.619 31.857v6.267h-16.096v-24.64h15.75v6.267h-9.333v2.884h8.185v5.982h-8.185v3.234l9.679.006zM132.919 36.151l2.104-6.053c1.945 1.425 4.142 2.2 6.386 2.25 1.855 0 2.541-.49 2.541-1.338 0-3.098-10.7-.595-10.7-9.785 0-4.572 3.012-8.304 9.013-8.304 2.535-.062 5.044.676 7.301 2.148l-1.961 6.02c-1.66-1.144-3.509-1.772-5.396-1.83-1.905 0-2.54.699-2.54 1.546 0 2.955 10.7.491 10.7 9.571 0 4.527-3.013 8.31-9.014 8.31-3.236 0-6.498-1.021-8.434-2.535zM151.088 36.151l2.104-6.053c1.945 1.425 4.142 2.2 6.386 2.25 1.855 0 2.515-.49 2.515-1.338 0-3.098-10.7-.595-10.7-9.785 0-4.572 3.013-8.304 9.013-8.304 2.536-.062 5.044.676 7.302 2.148l-1.962 6.02c-1.658-1.143-3.505-1.77-5.39-1.83-1.906 0-2.515.699-2.515 1.546 0 2.955 10.705.491 10.705 9.571 0 4.527-3.018 8.31-9.019 8.31-3.236 0-6.503-1.021-8.439-2.535zM186.573 31.857v6.267h-16.096v-24.64h15.75v6.267h-9.338v2.884h8.19v5.982h-8.19v3.234l9.684.006zM197.385 31.928h-1.774v6.196h-6.523v-24.64h9.318c5.396 0 8.82 3.59 8.82 9.293.052 1.606-.265 3.195-.913 4.574s-1.599 2.486-2.735 3.187l4.065 7.605h-6.971l-3.287-6.215zm.609-12.041h-2.383v5.781h2.383c1.794 0 2.653-1.093 2.653-2.884 0-1.792-.859-2.897-2.653-2.897zM208.669 33.9c0-2.709 1.575-4.526 3.648-4.526 2.073 0 3.653 1.798 3.653 4.527-.035 1.202-.435 2.34-1.116 3.175s-1.589 1.301-2.534 1.301c-.946 0-1.854-.466-2.535-1.3-.681-.836-1.081-1.974-1.116-3.176zM217.261 13.27c0-2.289 1.468-4.048 3.765-4.048 2.296 0 3.759 1.623 3.759 3.88 0 2.432-1.468 4.191-3.759 4.191-2.292 0-3.765-1.733-3.765-4.022zm.64 5.601h6.249v19.253h-6.249V18.871zM226.117 28.481c0-5.82 3.678-9.966 8.795-9.966 5.116 0 8.794 4.12 8.794 9.966 0 5.847-3.653 9.992-8.794 9.992-5.142 0-8.795-4.152-8.795-9.992zm11.254 0c0-2.502-1.077-3.77-2.459-3.77-1.382 0-2.46 1.294-2.46 3.77 0 2.477 1.078 3.797 2.46 3.797s2.459-1.3 2.459-3.797z" fill="#FDFDFD"/>
        <path d="M99.397 56.5a.19.19 0 0 1-.153-.063.189.189 0 0 1-.027-.153l1.251-5.859a.273.273 0 0 1 .09-.162.251.251 0 0 1 .171-.063h3.906c.066 0 .114.021.144.063.024.03.036.066.036.108a.17.17 0 0 1-.009.054l-.135.63a.273.273 0 0 1-.09.162.277.277 0 0 1-.171.054h-2.889l-.369 1.71h2.709c.066 0 .114.021.144.063.024.03.036.066.036.108a.17.17 0 0 1-.009.054l-.126.63a.258.258 0 0 1-.099.162.277.277 0 0 1-.171.054h-2.709l-.477 2.232a.263.263 0 0 1-.261.216h-.792zm5.2 0a.18.18 0 0 1-.144-.063.189.189 0 0 1-.027-.153l.9-4.239a.27.27 0 0 1 .09-.153.255.255 0 0 1 .171-.072h.729a.18.18 0 0 1 .144.063c.024.03.036.066.036.108a.17.17 0 0 1-.009.054l-.081.369c.3-.396.753-.594 1.359-.594h.441c.066 0 .114.021.144.063.024.03.036.066.036.108a.148.148 0 0 1-.009.045l-.135.648a.263.263 0 0 1-.261.216h-.702c-.288 0-.531.081-.729.243a1.154 1.154 0 0 0-.378.666l-.531 2.475a.263.263 0 0 1-.261.216h-.783zm5.626.09c-.576 0-1.02-.144-1.332-.432-.306-.288-.459-.702-.459-1.242a3.838 3.838 0 0 1 .144-.99c.174-.684.498-1.221.972-1.611.48-.39 1.05-.585 1.71-.585.588 0 1.032.153 1.332.459.306.3.459.714.459 1.242 0 .198-.024.423-.072.675l-.045.189a.254.254 0 0 1-.099.153.251.251 0 0 1-.171.063h-2.988l-.018.072a1.608 1.608 0 0 0-.027.297c0 .258.063.468.189.63.132.162.324.243.576.243.348 0 .66-.138.936-.414a.853.853 0 0 1 .162-.126.35.35 0 0 1 .153-.027h.783c.054 0 .096.018.126.054a.122.122 0 0 1 .036.09.148.148 0 0 1-.009.045c-.042.144-.171.312-.387.504a2.84 2.84 0 0 1-.837.504c-.342.138-.72.207-1.134.207zm1.602-2.835.009-.027c.024-.114.036-.228.036-.342 0-.258-.069-.462-.207-.612-.132-.15-.324-.225-.576-.225-.312 0-.579.108-.801.324-.222.216-.369.501-.441.855l-.009.027h1.989zm3.575 2.835c-.576 0-1.02-.144-1.332-.432-.306-.288-.459-.702-.459-1.242a3.838 3.838 0 0 1 .144-.99c.174-.684.498-1.221.972-1.611.48-.39 1.05-.585 1.71-.585.588 0 1.032.153 1.332.459.306.3.459.714.459 1.242 0 .198-.024.423-.072.675l-.045.189a.254.254 0 0 1-.099.153.251.251 0 0 1-.171.063h-2.988l-.018.072a1.608 1.608 0 0 0-.027.297c0 .258.063.468.189.63.132.162.324.243.576.243.348 0 .66-.138.936-.414a.853.853 0 0 1 .162-.126.35.35 0 0 1 .153-.027h.783c.054 0 .096.018.126.054a.122.122 0 0 1 .036.09.148.148 0 0 1-.009.045c-.042.144-.171.312-.387.504a2.84 2.84 0 0 1-.837.504c-.342.138-.72.207-1.134.207zm1.602-2.835.009-.027c.024-.114.036-.228.036-.342 0-.258-.069-.462-.207-.612-.132-.15-.324-.225-.576-.225-.312 0-.579.108-.801.324-.222.216-.369.501-.441.855l-.009.027h1.989zm3.884 2.745a.19.19 0 0 1-.153-.063.189.189 0 0 1-.027-.153l1.251-5.859a.273.273 0 0 1 .09-.162.251.251 0 0 1 .171-.063h2.304c.636 0 1.137.132 1.503.396.372.258.558.636.558 1.134 0 .138-.018.294-.054.468-.282 1.32-1.164 1.98-2.646 1.98h-1.44l-.45 2.106a.273.273 0 0 1-.09.162.277.277 0 0 1-.171.054h-.846zm3.024-3.321c.342 0 .633-.084.873-.252a1.13 1.13 0 0 0 .459-.729c.03-.15.045-.27.045-.36 0-.21-.069-.369-.207-.477-.132-.108-.36-.162-.684-.162h-1.332l-.423 1.98h1.269zm2.809 3.321a.18.18 0 0 1-.144-.063.189.189 0 0 1-.027-.153l.9-4.239a.27.27 0 0 1 .09-.153.255.255 0 0 1 .171-.072h.729a.18.18 0 0 1 .144.063c.024.03.036.066.036.108a.17.17 0 0 1-.009.054l-.081.369c.3-.396.753-.594 1.359-.594h.441c.066 0 .114.021.144.063.024.03.036.066.036.108a.148.148 0 0 1-.009.045l-.135.648a.263.263 0 0 1-.261.216h-.702c-.288 0-.531.081-.729.243a1.154 1.154 0 0 0-.378.666l-.531 2.475a.263.263 0 0 1-.261.216h-.783zm5.626.09c-.576 0-1.02-.144-1.332-.432-.306-.288-.459-.702-.459-1.242a3.838 3.838 0 0 1 .144-.99c.174-.684.498-1.221.972-1.611.48-.39 1.05-.585 1.71-.585.588 0 1.032.153 1.332.459.306.3.459.714.459 1.242 0 .198-.024.423-.072.675l-.045.189a.254.254 0 0 1-.099.153.251.251 0 0 1-.171.063h-2.988l-.018.072a1.608 1.608 0 0 0-.027.297c0 .258.063.468.189.63.132.162.324.243.576.243.348 0 .66-.138.936-.414a.853.853 0 0 1 .162-.126.35.35 0 0 1 .153-.027h.783c.054 0 .096.018.126.054a.122.122 0 0 1 .036.09.148.148 0 0 1-.009.045c-.042.144-.171.312-.387.504a2.84 2.84 0 0 1-.837.504c-.342.138-.72.207-1.134.207zm1.602-2.835.009-.027c.024-.114.036-.228.036-.342 0-.258-.069-.462-.207-.612-.132-.15-.324-.225-.576-.225-.312 0-.579.108-.801.324-.222.216-.369.501-.441.855l-.009.027h1.989zm3.332 2.835c-.42 0-.765-.06-1.035-.18-.27-.12-.465-.261-.585-.423-.12-.168-.18-.324-.18-.468 0-.084.027-.15.081-.198a.25.25 0 0 1 .18-.081h.711a.2.2 0 0 1 .063.009c.018.006.036.024.054.054l.162.162a.863.863 0 0 0 .315.225c.126.054.273.081.441.081.27 0 .495-.057.675-.171.18-.12.27-.282.27-.486 0-.138-.081-.249-.243-.333-.156-.084-.453-.174-.891-.27-.414-.09-.723-.222-.927-.396a.846.846 0 0 1-.306-.675c0-.108.012-.21.036-.306.048-.24.168-.465.36-.675.192-.216.444-.39.756-.522a2.6 2.6 0 0 1 1.062-.207c.402 0 .735.063.999.189s.453.276.567.45a.73.73 0 0 1 .144.396.296.296 0 0 1-.009.072.217.217 0 0 1-.09.153.23.23 0 0 1-.153.063h-.657c-.06 0-.105-.021-.135-.063a7.581 7.581 0 0 1-.171-.18.916.916 0 0 0-.279-.189.935.935 0 0 0-.396-.072.97.97 0 0 0-.549.144.609.609 0 0 0-.27.378.536.536 0 0 0-.009.117c0 .126.075.231.225.315.15.084.435.168.855.252.906.18 1.359.555 1.359 1.125 0 .06-.012.156-.036.288-.09.42-.348.762-.774 1.026-.42.264-.96.396-1.62.396zm4.79 0c-.42 0-.765-.06-1.035-.18-.27-.12-.465-.261-.585-.423-.12-.168-.18-.324-.18-.468 0-.084.027-.15.081-.198a.25.25 0 0 1 .18-.081h.711a.2.2 0 0 1 .063.009c.018.006.036.024.054.054l.162.162a.863.863 0 0 0 .315.225c.126.054.273.081.441.081.27 0 .495-.057.675-.171.18-.12.27-.282.27-.486 0-.138-.081-.249-.243-.333-.156-.084-.453-.174-.891-.27-.414-.09-.723-.222-.927-.396a.846.846 0 0 1-.306-.675c0-.108.012-.21.036-.306.048-.24.168-.465.36-.675.192-.216.444-.39.756-.522a2.6 2.6 0 0 1 1.062-.207c.402 0 .735.063.999.189s.453.276.567.45a.73.73 0 0 1 .144.396.296.296 0 0 1-.009.072.217.217 0 0 1-.09.153.23.23 0 0 1-.153.063h-.657c-.06 0-.105-.021-.135-.063a7.581 7.581 0 0 1-.171-.18.916.916 0 0 0-.279-.189.935.935 0 0 0-.396-.072.97.97 0 0 0-.549.144.609.609 0 0 0-.27.378.536.536 0 0 0-.009.117c0 .126.075.231.225.315.15.084.435.168.855.252.906.18 1.359.555 1.359 1.125 0 .06-.012.156-.036.288-.09.42-.348.762-.774 1.026-.42.264-.96.396-1.62.396zm5.342-.09a.19.19 0 0 1-.153-.063.189.189 0 0 1-.027-.153l1.251-5.859a.273.273 0 0 1 .09-.162.251.251 0 0 1 .171-.063h3.906c.066 0 .114.021.144.063.024.03.036.066.036.108a.17.17 0 0 1-.009.054l-.135.63a.273.273 0 0 1-.09.162.277.277 0 0 1-.171.054h-2.889l-.369 1.71h2.709c.066 0 .114.021.144.063.024.03.036.066.036.108a.17.17 0 0 1-.009.054l-.126.63a.258.258 0 0 1-.099.162.277.277 0 0 1-.171.054h-2.709l-.477 2.232a.263.263 0 0 1-.261.216h-.792zm5.201 0a.18.18 0 0 1-.144-.063.189.189 0 0 1-.027-.153l.9-4.239a.27.27 0 0 1 .09-.153.255.255 0 0 1 .171-.072h.729a.18.18 0 0 1 .144.063c.024.03.036.066.036.108a.17.17 0 0 1-.009.054l-.081.369c.3-.396.753-.594 1.359-.594h.441c.066 0 .114.021.144.063.024.03.036.066.036.108a.148.148 0 0 1-.009.045l-.135.648a.263.263 0 0 1-.261.216h-.702c-.288 0-.531.081-.729.243a1.154 1.154 0 0 0-.378.666l-.531 2.475a.263.263 0 0 1-.261.216h-.783zm5.625.09c-.576 0-1.02-.144-1.332-.432-.306-.288-.459-.702-.459-1.242a3.838 3.838 0 0 1 .144-.99c.174-.684.498-1.221.972-1.611.48-.39 1.05-.585 1.71-.585.588 0 1.032.153 1.332.459.306.3.459.714.459 1.242 0 .198-.024.423-.072.675l-.045.189a.254.254 0 0 1-.099.153.251.251 0 0 1-.171.063h-2.988l-.018.072a1.608 1.608 0 0 0-.027.297c0 .258.063.468.189.63.132.162.324.243.576.243.348 0 .66-.138.936-.414a.853.853 0 0 1 .162-.126.35.35 0 0 1 .153-.027h.783c.054 0 .096.018.126.054a.122.122 0 0 1 .036.09.148.148 0 0 1-.009.045c-.042.144-.171.312-.387.504a2.84 2.84 0 0 1-.837.504c-.342.138-.72.207-1.134.207zm1.602-2.835.009-.027c.024-.114.036-.228.036-.342 0-.258-.069-.462-.207-.612-.132-.15-.324-.225-.576-.225-.312 0-.579.108-.801.324-.222.216-.369.501-.441.855l-.009.027h1.989zm3.575 2.835c-.576 0-1.02-.144-1.332-.432-.306-.288-.459-.702-.459-1.242a3.838 3.838 0 0 1 .144-.99c.174-.684.498-1.221.972-1.611.48-.39 1.05-.585 1.71-.585.588 0 1.032.153 1.332.459.306.3.459.714.459 1.242 0 .198-.024.423-.072.675l-.045.189a.254.254 0 0 1-.099.153.251.251 0 0 1-.171.063h-2.988l-.018.072a1.608 1.608 0 0 0-.027.297c0 .258.063.468.189.63.132.162.324.243.576.243.348 0 .66-.138.936-.414a.853.853 0 0 1 .162-.126.35.35 0 0 1 .153-.027h.783c.054 0 .096.018.126.054a.122.122 0 0 1 .036.09.148.148 0 0 1-.009.045c-.042.144-.171.312-.387.504a2.84 2.84 0 0 1-.837.504c-.342.138-.72.207-1.134.207zm1.602-2.835.009-.027c.024-.114.036-.228.036-.342 0-.258-.069-.462-.207-.612-.132-.15-.324-.225-.576-.225-.312 0-.579.108-.801.324-.222.216-.369.501-.441.855l-.009.027h1.989zm5.928 2.835c-.498 0-.921-.069-1.269-.207-.348-.138-.612-.321-.792-.549a1.268 1.268 0 0 1-.243-.981.22.22 0 0 1 .063-.135.215.215 0 0 1 .144-.054h.828c.066 0 .117.015.153.045a.27.27 0 0 1 .081.126.765.765 0 0 0 .306.513c.186.138.456.207.81.207.426 0 .765-.069 1.017-.207.258-.144.414-.342.468-.594.012-.072.018-.12.018-.144a.427.427 0 0 0-.153-.333 1.294 1.294 0 0 0-.441-.243 11.793 11.793 0 0 0-.855-.261c-.558-.144-.978-.336-1.26-.576a1.209 1.209 0 0 1-.414-.945c0-.138.018-.282.054-.432.108-.528.387-.945.837-1.251.456-.306 1.041-.459 1.755-.459.444 0 .831.078 1.161.234.33.15.582.345.756.585.174.234.261.471.261.711 0 .036-.006.09-.018.162a.269.269 0 0 1-.072.135.183.183 0 0 1-.135.054h-.855c-.126 0-.204-.057-.234-.171.006-.186-.081-.345-.261-.477-.174-.132-.399-.198-.675-.198-.342 0-.627.063-.855.189a.815.815 0 0 0-.432.711c0 .186.096.336.288.45.192.114.531.237 1.017.369.636.15 1.098.342 1.386.576.294.234.441.546.441.936 0 .156-.015.297-.045.423-.126.588-.432 1.035-.918 1.341-.48.3-1.119.45-1.917.45zm3.245 1.62c-.066 0-.114-.021-.144-.063a.168.168 0 0 1-.036-.108c0-.012.003-.027.009-.045l1.269-5.958a.27.27 0 0 1 .09-.153.24.24 0 0 1 .162-.063h.72a.18.18 0 0 1 .144.063c.024.03.036.066.036.108a.148.148 0 0 1-.009.045l-.081.36c.21-.216.429-.381.657-.495.228-.114.51-.171.846-.171.522 0 .915.147 1.179.441.27.288.405.681.405 1.179 0 .15-.015.324-.045.522a4.13 4.13 0 0 1-.126.585c-.162.642-.435 1.158-.819 1.548-.384.39-.882.585-1.494.585-.324 0-.597-.057-.819-.171a1.09 1.09 0 0 1-.477-.468l-.441 2.043a.224.224 0 0 1-.099.153.24.24 0 0 1-.162.063h-.765zm2.565-2.583c.33 0 .6-.108.81-.324.216-.222.378-.513.486-.873.048-.162.087-.342.117-.54.018-.126.027-.249.027-.369 0-.258-.057-.459-.171-.603-.114-.15-.306-.225-.576-.225-.348 0-.642.114-.882.342-.234.222-.39.492-.468.81-.054.228-.102.459-.144.693a1.33 1.33 0 0 0-.027.261c0 .24.066.438.198.594.138.156.348.234.63.234zm5.214.963c-.576 0-1.02-.144-1.332-.432-.306-.288-.459-.702-.459-1.242a3.838 3.838 0 0 1 .144-.99c.174-.684.498-1.221.972-1.611.48-.39 1.05-.585 1.71-.585.588 0 1.032.153 1.332.459.306.3.459.714.459 1.242 0 .198-.024.423-.072.675l-.045.189a.254.254 0 0 1-.099.153.251.251 0 0 1-.171.063h-2.988l-.018.072a1.608 1.608 0 0 0-.027.297c0 .258.063.468.189.63.132.162.324.243.576.243.348 0 .66-.138.936-.414a.853.853 0 0 1 .162-.126.35.35 0 0 1 .153-.027h.783c.054 0 .096.018.126.054a.122.122 0 0 1 .036.09.148.148 0 0 1-.009.045c-.042.144-.171.312-.387.504a2.84 2.84 0 0 1-.837.504c-.342.138-.72.207-1.134.207zm1.602-2.835.009-.027c.024-.114.036-.228.036-.342 0-.258-.069-.462-.207-.612-.132-.15-.324-.225-.576-.225-.312 0-.579.108-.801.324-.222.216-.369.501-.441.855l-.009.027h1.989zm3.575 2.835c-.576 0-1.02-.144-1.332-.432-.306-.288-.459-.702-.459-1.242a3.838 3.838 0 0 1 .144-.99c.174-.684.498-1.221.972-1.611.48-.39 1.05-.585 1.71-.585.588 0 1.032.153 1.332.459.306.3.459.714.459 1.242 0 .198-.024.423-.072.675l-.045.189a.254.254 0 0 1-.099.153.251.251 0 0 1-.171.063h-2.988l-.018.072a1.608 1.608 0 0 0-.027.297c0 .258.063.468.189.63.132.162.324.243.576.243.348 0 .66-.138.936-.414a.853.853 0 0 1 .162-.126.35.35 0 0 1 .153-.027h.783c.054 0 .096.018.126.054a.122.122 0 0 1 .036.09.148.148 0 0 1-.009.045c-.042.144-.171.312-.387.504a2.84 2.84 0 0 1-.837.504c-.342.138-.72.207-1.134.207zm1.602-2.835.009-.027c.024-.114.036-.228.036-.342 0-.258-.069-.462-.207-.612-.132-.15-.324-.225-.576-.225-.312 0-.579.108-.801.324-.222.216-.369.501-.441.855l-.009.027h1.989zm3.511 2.835c-.558 0-1.008-.147-1.35-.441-.342-.294-.513-.699-.513-1.215 0-.15.012-.288.036-.414.084-.408.135-.648.153-.72.162-.66.465-1.17.909-1.53.444-.36.999-.54 1.665-.54.438 0 .801.078 1.089.234.294.15.507.339.639.567.132.228.198.45.198.666a.536.536 0 0 1-.009.117.228.228 0 0 1-.081.153.208.208 0 0 1-.153.063h-.819c-.126 0-.192-.06-.198-.18 0-.456-.249-.684-.747-.684-.306 0-.573.099-.801.297-.222.192-.384.486-.486.882l-.135.63a2.113 2.113 0 0 0-.036.396c0 .522.252.783.756.783.498 0 .864-.219 1.098-.657a.377.377 0 0 1 .108-.135.256.256 0 0 1 .153-.045h.81a.18.18 0 0 1 .144.063.146.146 0 0 1 .027.09.264.264 0 0 1-.009.063 2.083 2.083 0 0 1-.387.693c-.186.234-.453.438-.801.612-.348.168-.768.252-1.26.252zm3.297-.09a.18.18 0 0 1-.144-.063.189.189 0 0 1-.027-.153l1.269-5.958a.27.27 0 0 1 .09-.153.24.24 0 0 1 .162-.063h.81c.066 0 .114.021.144.063.024.03.036.066.036.108a.148.148 0 0 1-.009.045l-.441 2.052c.204-.21.426-.369.666-.477a1.93 1.93 0 0 1 .837-.171c.486 0 .864.132 1.134.396.276.258.414.618.414 1.08 0 .18-.021.363-.063.549l-.54 2.529a.263.263 0 0 1-.261.216h-.81a.18.18 0 0 1-.144-.063.189.189 0 0 1-.027-.153l.522-2.475c.03-.12.045-.255.045-.405 0-.474-.249-.711-.747-.711a1.362 1.362 0 0 0-1.332 1.116l-.522 2.475a.273.273 0 0 1-.09.162.263.263 0 0 1-.162.054h-.81z" fill="#FCFCFC"/>
    </g>
    <defs>
        <clipPath id="zbq7ag2asa">
            <path fill="#fff" d="M0 0h309v59H0z"/>
        </clipPath>
    </defs>
</svg>
