<svg width="609" height="92" viewBox="0 0 609 92" fill="none" xmlns="http://www.w3.org/2000/svg">
<g clip-path="url(#clip0_372_1300)">
<path d="M608.17 0H0V91.23H608.17V0Z" fill="#3D5B81"/>
<path fill-rule="evenodd" clip-rule="evenodd" d="M131.38 11.31H174.38C177.38 11.31 179.76 14.21 179.76 17.78V58.59C179.76 62.16 177.35 65.06 174.38 65.06H131.38C128.38 65.06 126 62.16 126 58.59V17.78C126 14.21 128.41 11.31 131.38 11.31Z" fill="#497DBE"/>
<path d="M173.92 35.22C173.92 44.04 167.17 49.59 156.56 49.59H151.06V58.95H138.21V20.85H156.61C167.17 20.85 173.92 26.4 173.92 35.22ZM160.97 35.22C160.97 32.44 159.28 30.75 155.74 30.75H151.06V39.69H155.74C159.28 39.69 160.97 37.99 160.97 35.22Z" fill="#FDFDFD"/>
<path d="M203.15 49.37H199.67V58.95H186.82V20.85H205.16C215.78 20.85 222.53 26.4 222.53 35.22C222.63 37.7031 222.003 40.1614 220.726 42.2931C219.449 44.4249 217.577 46.1372 215.34 47.22L223.34 58.98H209.61L203.15 49.37ZM204.35 30.75H199.67V39.69H204.35C207.89 39.69 209.57 38 209.57 35.23C209.57 32.46 207.89 30.75 204.35 30.75Z" fill="#FDFDFD"/>
<path d="M259.05 49.26V58.95H227.37V20.85H258.37V30.54H240V35H256.11V44.25H240V49.25L259.05 49.26Z" fill="#FDFDFD"/>
<path d="M261.61 55.9L265.75 46.54C269.579 48.7431 273.903 49.9403 278.32 50.02C281.97 50.02 283.32 49.26 283.32 47.95C283.32 43.16 262.26 47.03 262.26 32.82C262.26 25.75 268.19 19.98 280 19.98C284.99 19.8841 289.927 21.0247 294.37 23.3L290.51 32.61C287.244 30.8398 283.604 29.8699 279.89 29.78C276.14 29.78 274.89 30.86 274.89 32.17C274.89 36.74 295.95 32.93 295.95 46.97C295.95 53.97 290.02 59.82 278.21 59.82C271.84 59.82 265.42 58.24 261.61 55.9Z" fill="#FDFDFD"/>
<path d="M297.37 55.9L301.51 46.54C305.339 48.7431 309.663 49.9403 314.08 50.02C317.73 50.02 319.03 49.26 319.03 47.95C319.03 43.16 297.97 47.03 297.97 32.82C297.97 25.75 303.9 19.98 315.71 19.98C320.701 19.8841 325.637 21.0247 330.08 23.3L326.22 32.61C322.957 30.8413 319.321 29.8714 315.61 29.78C311.86 29.78 310.66 30.86 310.66 32.17C310.66 36.74 331.73 32.93 331.73 46.97C331.73 53.97 325.79 59.82 313.98 59.82C307.61 59.82 301.18 58.24 297.37 55.9Z" fill="#FDFDFD"/>
<path d="M367.21 49.26V58.95H335.53V20.85H366.53V30.54H348.15V35H364.27V44.25H348.15V49.25L367.21 49.26Z" fill="#FDFDFD"/>
<path d="M388.49 49.37H385V58.95H372.16V20.85H390.5C401.12 20.85 407.86 26.4 407.86 35.22C407.962 37.7022 407.337 40.1603 406.062 42.2922C404.786 44.424 402.916 46.1368 400.68 47.22L408.68 58.98H394.96L388.49 49.37ZM389.69 30.75H385V39.69H389.69C393.22 39.69 394.91 38 394.91 35.23C394.91 32.46 393.22 30.75 389.69 30.75Z" fill="#FDFDFD"/>
<path d="M410.7 52.42C410.7 48.23 413.8 45.42 417.88 45.42C421.96 45.42 425.07 48.2 425.07 52.42C425.001 54.2792 424.213 56.0391 422.873 57.3299C421.533 58.6207 419.745 59.3419 417.885 59.3419C416.024 59.3419 414.236 58.6207 412.897 57.3299C411.557 56.0391 410.769 54.2792 410.7 52.42Z" fill="#FDFDFD"/>
<path d="M428 20.26C428 16.72 430.89 14 435.41 14C439.93 14 442.81 16.51 442.81 20C442.81 23.76 439.92 26.48 435.41 26.48C430.9 26.48 428 23.8 428 20.26ZM429.26 28.92H441.56V58.69H429.26V28.92Z" fill="#FDFDFD"/>
<path d="M445.04 44.04C445.04 35.04 452.28 28.63 462.35 28.63C472.42 28.63 479.66 35 479.66 44.04C479.66 53.08 472.47 59.49 462.35 59.49C452.23 59.49 445.04 53.07 445.04 44.04ZM467.19 44.04C467.19 40.17 465.07 38.21 462.35 38.21C459.63 38.21 457.51 40.21 457.51 44.04C457.51 47.87 459.63 49.91 462.35 49.91C465.07 49.91 467.19 47.9 467.19 44.04Z" fill="#FDFDFD"/>
</g>
<defs>
<clipPath id="clip0_372_1300">
<rect width="608.17" height="91.23" fill="white"/>
</clipPath>
</defs>
</svg>
